<?xml version="1.0" encoding="iso-8859-1"?>
<!-- Generator: Adobe Illustrator 18.1.1, SVG Export Plug-In . SVG Version: 6.00 Build 0)  -->
<svg version="1.1" id="Capa_1" xmlns="http://www.w3.org/2000/svg" xmlns:xlink="http://www.w3.org/1999/xlink" x="0px" y="0px"
	 viewBox="0 0 7.71 7.71" style="enable-background:new 0 0 7.71 7.71;" xml:space="preserve">
<g>
	<g>
		<path style="fill:#010002;" d="M0.858,3.897l2.996-2.651L6.85,3.897c0.196,0.196,0.516,0.196,0.711,0
			c0.198-0.196,0.198-0.514,0.002-0.711L4.217,0.227c-0.1-0.1-0.231-0.148-0.362-0.146C3.723,0.079,3.592,0.127,3.492,0.227
			L0.147,3.186c-0.196,0.196-0.196,0.515,0,0.711C0.343,4.093,0.662,4.093,0.858,3.897z"/>
		<path style="fill:#010002;" d="M4.217,3.813c-0.1-0.1-0.231-0.148-0.362-0.146C3.723,3.665,3.592,3.713,3.492,3.813L0.147,6.771
			c-0.196,0.197-0.196,0.516,0,0.711c0.196,0.197,0.515,0.197,0.711,0l2.996-2.649L6.85,7.482c0.196,0.197,0.516,0.197,0.711,0
			c0.196-0.195,0.196-0.514,0-0.711L4.217,3.813z"/>
	</g>
</g>
<g>
</g>
<g>
</g>
<g>
</g>
<g>
</g>
<g>
</g>
<g>
</g>
<g>
</g>
<g>
</g>
<g>
</g>
<g>
</g>
<g>
</g>
<g>
</g>
<g>
</g>
<g>
</g>
<g>
</g>
</svg>
