<?xml version="1.0" encoding="iso-8859-1"?>
<!-- Generator: Adobe Illustrator 18.0.0, SVG Export Plug-In . SVG Version: 6.00 Build 0)  -->
<!DOCTYPE svg PUBLIC "-//W3C//DTD SVG 1.1//EN" "http://www.w3.org/Graphics/SVG/1.1/DTD/svg11.dtd">
<svg version="1.1" id="Capa_1" xmlns="http://www.w3.org/2000/svg" xmlns:xlink="http://www.w3.org/1999/xlink" x="0px" y="0px"
	 viewBox="0 0 57.991 38.015" style="enable-background:new 0 0 57.991 38.015;" xml:space="preserve">
<g id="Shape_17">
	<g>
		<path style="fill-rule:evenodd;clip-rule:evenodd;" d="M57.991,4.816c0-1.238-0.489-2.358-1.269-3.212
			c-0.013-0.017-0.016-0.037-0.03-0.054c-0.013-0.015-0.031-0.021-0.045-0.035C55.76,0.587,54.51,0,53.118,0H4.874
			C3.482,0,2.232,0.587,1.343,1.515C1.33,1.529,1.311,1.535,1.298,1.551c-0.014,0.016-0.017,0.037-0.03,0.054
			C0.489,2.459,0,3.578,0,4.816v28.384c0,1.268,0.509,2.415,1.323,3.276c0.016,0.018,0.021,0.04,0.039,0.057
			c0.006,0.006,0.013,0.007,0.019,0.013c0.887,0.904,2.122,1.47,3.493,1.47h48.244c1.371,0,2.607-0.567,3.493-1.471
			c0.006-0.005,0.013-0.007,0.019-0.012c0.017-0.016,0.022-0.038,0.038-0.055c0.815-0.861,1.324-2.009,1.324-3.278V4.816z
			 M39.01,17.508L55.722,3.651c0.164,0.356,0.261,0.749,0.261,1.165v28.384c0,0.376-0.078,0.733-0.213,1.062L39.01,17.508z
			 M53.118,1.985c0.421,0,0.818,0.096,1.179,0.258L28.996,23.22L3.695,2.243c0.361-0.162,0.758-0.258,1.179-0.258H53.118z
			 M2.222,34.261c-0.135-0.328-0.213-0.686-0.213-1.062V4.816c0-0.416,0.097-0.809,0.261-1.165l16.712,13.857L2.222,34.261z
			 M4.874,36.03c-0.464,0-0.896-0.12-1.284-0.314l16.936-16.929l7.825,6.488c0.186,0.155,0.416,0.233,0.645,0.233
			c0.229,0,0.459-0.078,0.645-0.233l7.825-6.488l16.936,16.929c-0.388,0.194-0.82,0.314-1.284,0.314H4.874z"/>
	</g>
</g>
<g>
</g>
<g>
</g>
<g>
</g>
<g>
</g>
<g>
</g>
<g>
</g>
<g>
</g>
<g>
</g>
<g>
</g>
<g>
</g>
<g>
</g>
<g>
</g>
<g>
</g>
<g>
</g>
<g>
</g>
</svg>
