<?xml version="1.0" encoding="iso-8859-1"?>
<!-- Generator: Adobe Illustrator 18.1.1, SVG Export Plug-In . SVG Version: 6.00 Build 0)  -->
<svg version="1.1" id="Capa_1" xmlns="http://www.w3.org/2000/svg" xmlns:xlink="http://www.w3.org/1999/xlink" x="0px" y="0px"
	 viewBox="0 0 105.564 89.29" style="enable-background:new 0 0 105.564 89.29;" xml:space="preserve">
<g>
	<path d="M103.064,22.744c-1.381,0-2.5-1.119-2.5-2.5v-7.828c0-0.389-0.328-0.718-0.717-0.718h-61.57
		c-2.454,0-5.567-1.352-7.24-3.147l-1.862-1.994C28.44,5.772,26.666,5,25.59,5H5.717C5.328,5,5,5.328,5,5.717v14.527
		c0,1.381-1.119,2.5-2.5,2.5c-1.381,0-2.5-1.119-2.5-2.5V5.717C0,2.564,2.564,0,5.717,0H25.59c2.454,0,5.567,1.352,7.24,3.147
		l1.862,1.994c0.733,0.786,2.509,1.558,3.585,1.558h61.57c3.152,0,5.717,2.565,5.717,5.718v7.828
		C105.564,21.625,104.445,22.744,103.064,22.744z"/>
	<path d="M99.848,89.29H5.717C2.564,89.29,0,86.726,0,83.573V35.256c0-3.152,2.564-5.718,5.717-5.718h94.131
		c3.152,0,5.717,2.565,5.717,5.718v48.317C105.564,86.726,103,89.29,99.848,89.29z M5.717,34.538C5.328,34.538,5,34.867,5,35.256
		v48.317c0,0.389,0.328,0.717,0.717,0.717h94.131c0.389,0,0.717-0.328,0.717-0.717V35.256c0-0.389-0.328-0.718-0.717-0.718H5.717z"
		/>
</g>
<g>
</g>
<g>
</g>
<g>
</g>
<g>
</g>
<g>
</g>
<g>
</g>
<g>
</g>
<g>
</g>
<g>
</g>
<g>
</g>
<g>
</g>
<g>
</g>
<g>
</g>
<g>
</g>
<g>
</g>
</svg>
