<?xml version="1.0" encoding="utf-8"?>
<!-- Generator: Adobe Illustrator 17.0.0, SVG Export Plug-In . SVG Version: 6.00 Build 0)  -->
<!DOCTYPE svg PUBLIC "-//W3C//DTD SVG 1.1//EN" "http://www.w3.org/Graphics/SVG/1.1/DTD/svg11.dtd">
<svg version="1.1" id="Capa_1" xmlns="http://www.w3.org/2000/svg" xmlns:xlink="http://www.w3.org/1999/xlink" x="0px" y="0px"
	 width="64px" height="64px" viewBox="0 0 64 64" enable-background="new 0 0 64 64" xml:space="preserve">
<g>
	<path d="M47,35h-5.927c2.998-3.705,4.92-8.677,4.92-13.13c0-8.243-6.706-14.949-14.949-14.949S16.094,13.627,16.094,21.87
		c0,4.453,1.922,9.425,4.92,13.13H15c-2.732,0-5.248,1.373-6.729,3.672c-1.043,1.62-1.262,4.457-0.65,8.433l0.783,5.093
		C8.817,54.891,11.276,57,14,57h34c2.724,0,5.183-2.109,5.597-4.802l0.783-5.093c0.612-3.976,0.393-6.813-0.65-8.433
		C52.248,36.373,49.732,35,47,35z M51.62,51.895C51.361,53.578,49.703,55,48,55H14c-1.703,0-3.361-1.422-3.62-3.105l-0.783-5.093
		c-0.52-3.381-0.394-5.883,0.355-7.046C11.063,38.03,12.951,37,15,37h7.876c2.372,2.204,5.19,3.616,8.167,3.616
		s5.796-1.412,8.167-3.616H47c2.049,0,3.937,1.03,5.048,2.755c0.75,1.163,0.875,3.666,0.355,7.046L51.62,51.895z M44.094,21.87
		c0,4.493-2.257,9.705-5.564,13.13c-0.342,0.354-0.694,0.687-1.057,1c-0.421,0.363-0.853,0.701-1.299,1
		c-1.597,1.072-3.336,1.717-5.131,1.717S27.51,38.072,25.913,37c-0.446-0.299-0.878-0.637-1.299-1c-0.363-0.313-0.715-0.646-1.057-1
		c-3.307-3.425-5.564-8.636-5.564-13.13c0-7.196,5.854-13.051,13.051-13.051S44.094,14.674,44.094,21.87z"/>
</g>
</svg>
